<!-- https://www.vectorlogo.zone/util/preview.html?image=/logos/eslint/eslint-ar21.svg -->
<?xml version="1.0" encoding="UTF-8"?>
<svg xmlns="http://www.w3.org/2000/svg" xmlns:xlink="http://www.w3.org/1999/xlink" width="123px" height="62px" viewBox="0 0 124 62" version="1.1">
<g id="surface1">
<path style=" stroke:none;fill-rule:nonzero;fill:rgb(50.196078%,50.196078%,94.901961%);fill-opacity:1;" d="M 20.738281 25.300781 L 29.796875 20.070312 C 30.023438 19.941406 30.304688 19.941406 30.53125 20.070312 L 39.589844 25.300781 C 39.816406 25.429688 39.957031 25.671875 39.957031 25.933594 L 39.957031 36.394531 C 39.957031 36.65625 39.816406 36.898438 39.589844 37.027344 L 30.53125 42.257812 C 30.304688 42.386719 30.023438 42.386719 29.796875 42.257812 L 20.738281 37.027344 C 20.511719 36.898438 20.371094 36.65625 20.371094 36.394531 L 20.371094 25.933594 C 20.371094 25.671875 20.511719 25.429688 20.738281 25.300781 "/>
<path style=" stroke:none;fill-rule:nonzero;fill:rgb(29.411765%,19.607843%,76.470588%);fill-opacity:1;" d="M 53.71875 30.0625 L 42.882812 11.234375 C 42.492188 10.550781 41.765625 10.050781 40.976562 10.050781 L 19.328125 10.050781 C 18.542969 10.050781 17.816406 10.554688 17.421875 11.234375 L 6.609375 30.023438 C 6.21875 30.710938 6.21875 31.554688 6.609375 32.242188 L 17.433594 50.921875 C 17.824219 51.601562 18.550781 51.949219 19.339844 51.949219 L 40.988281 51.949219 C 41.773438 51.949219 42.5 51.613281 42.894531 50.929688 L 53.71875 32.222656 C 54.109375 31.542969 54.109375 30.746094 53.71875 30.054688 M 44.742188 39.109375 C 44.742188 39.386719 44.578125 39.644531 44.335938 39.78125 L 30.550781 47.734375 C 30.308594 47.875 30.011719 47.875 29.769531 47.734375 L 15.972656 39.78125 C 15.726562 39.644531 15.570312 39.390625 15.5625 39.109375 L 15.5625 23.207031 C 15.5625 22.933594 15.730469 22.675781 15.96875 22.535156 L 29.757812 14.582031 C 29.996094 14.445312 30.292969 14.445312 30.535156 14.582031 L 44.34375 22.527344 C 44.589844 22.664062 44.746094 22.917969 44.753906 23.199219 Z M 44.742188 39.109375 "/>
<path style=" stroke:none;fill-rule:nonzero;fill:rgb(30.196078%,30.196078%,30.196078%);fill-opacity:1;" d="M 59.453125 38.6875 L 59.453125 23.851562 L 68.003906 23.851562 L 68.003906 25.4375 L 61.332031 25.4375 L 61.332031 30.085938 L 66.964844 30.085938 L 66.964844 31.691406 L 61.332031 31.691406 L 61.332031 37.066406 L 68.230469 37.066406 L 68.230469 38.671875 Z M 75.496094 38.960938 C 74.460938 38.960938 73.496094 38.765625 72.601562 38.371094 C 71.707031 37.980469 70.9375 37.445312 70.296875 36.765625 L 71.425781 35.453125 C 71.953125 36.003906 72.570312 36.457031 73.28125 36.808594 C 74.003906 37.140625 74.75 37.304688 75.519531 37.304688 C 76.5 37.304688 77.257812 37.085938 77.792969 36.648438 C 78.335938 36.199219 78.609375 35.609375 78.609375 34.886719 C 78.609375 34.507812 78.539062 34.191406 78.402344 33.9375 C 78.285156 33.664062 78.109375 33.4375 77.882812 33.257812 C 77.671875 33.058594 77.417969 32.886719 77.117188 32.738281 C 76.8125 32.585938 76.488281 32.425781 76.144531 32.261719 L 74.019531 31.335938 C 73.671875 31.183594 73.316406 31.003906 72.953125 30.792969 C 72.59375 30.582031 72.269531 30.324219 71.984375 30.023438 C 71.695312 29.722656 71.464844 29.367188 71.28125 28.960938 C 71.101562 28.535156 71.011719 28.054688 71.011719 27.511719 C 71.011719 26.960938 71.125 26.445312 71.347656 25.960938 C 71.589844 25.480469 71.914062 25.066406 72.320312 24.71875 C 72.742188 24.355469 73.234375 24.082031 73.792969 23.890625 C 74.363281 23.695312 74.992188 23.597656 75.667969 23.597656 C 76.566406 23.597656 77.386719 23.769531 78.132812 24.117188 C 78.886719 24.449219 79.527344 24.886719 80.054688 25.429688 L 79.050781 26.660156 C 78.597656 26.222656 78.09375 25.882812 77.535156 25.640625 C 76.992188 25.386719 76.375 25.257812 75.679688 25.257812 C 74.851562 25.257812 74.179688 25.453125 73.667969 25.847656 C 73.171875 26.222656 72.921875 26.75 72.921875 27.429688 C 72.921875 27.792969 72.988281 28.101562 73.125 28.355469 C 73.277344 28.597656 73.472656 28.816406 73.714844 29.011719 C 73.953125 29.195312 74.21875 29.359375 74.503906 29.507812 C 74.792969 29.644531 75.085938 29.773438 75.386719 29.894531 L 77.492188 30.796875 C 77.914062 30.980469 78.3125 31.191406 78.6875 31.429688 C 79.066406 31.65625 79.390625 31.929688 79.660156 32.246094 C 79.933594 32.546875 80.144531 32.910156 80.292969 33.332031 C 80.460938 33.742188 80.542969 34.21875 80.542969 34.757812 C 80.542969 35.34375 80.421875 35.894531 80.179688 36.40625 C 79.953125 36.921875 79.621094 37.371094 79.183594 37.765625 C 78.746094 38.140625 78.21875 38.441406 77.601562 38.667969 C 76.984375 38.878906 76.285156 38.984375 75.5 38.984375 Z M 83.4375 38.6875 L 83.4375 23.851562 L 85.316406 23.851562 L 85.316406 37.082031 L 91.804688 37.082031 L 91.804688 38.6875 Z M 94.257812 38.6875 L 94.257812 27.699219 L 96.113281 27.699219 L 96.113281 38.6875 Z M 95.207031 25.433594 C 94.847656 25.433594 94.539062 25.324219 94.28125 25.097656 C 94.039062 24.871094 93.917969 24.585938 93.917969 24.238281 C 93.917969 23.875 94.039062 23.589844 94.28125 23.378906 C 94.539062 23.152344 94.847656 23.039062 95.207031 23.039062 C 95.570312 23.039062 95.871094 23.152344 96.113281 23.378906 C 96.367188 23.589844 96.496094 23.875 96.496094 24.238281 C 96.496094 24.582031 96.367188 24.871094 96.113281 25.097656 C 95.871094 25.324219 95.570312 25.433594 95.207031 25.433594 Z M 99.820312 38.6875 L 99.820312 27.699219 L 101.371094 27.699219 L 101.527344 29.28125 L 101.597656 29.28125 C 102.125 28.753906 102.675781 28.316406 103.246094 27.96875 C 103.835938 27.609375 104.515625 27.425781 105.285156 27.425781 C 106.445312 27.425781 107.289062 27.789062 107.816406 28.511719 C 108.359375 29.234375 108.628906 30.304688 108.628906 31.722656 L 108.628906 38.6875 L 106.773438 38.6875 L 106.773438 31.972656 C 106.773438 30.9375 106.609375 30.191406 106.277344 29.730469 C 105.949219 29.265625 105.421875 29.03125 104.695312 29.03125 C 104.121094 29.03125 103.617188 29.175781 103.179688 29.460938 C 102.742188 29.746094 102.246094 30.171875 101.6875 30.726562 L 101.6875 38.6875 Z M 115.652344 38.960938 C 115.0625 38.960938 114.566406 38.871094 114.160156 38.6875 C 113.765625 38.507812 113.441406 38.257812 113.1875 37.941406 C 112.945312 37.625 112.773438 37.242188 112.667969 36.789062 C 112.5625 36.335938 112.507812 35.839844 112.507812 35.296875 L 112.507812 29.199219 L 110.878906 29.199219 L 110.878906 27.796875 L 112.597656 27.695312 L 112.828125 24.621094 L 114.375 24.621094 L 114.375 27.695312 L 117.339844 27.695312 L 117.339844 29.210938 L 114.375 29.210938 L 114.375 35.308594 C 114.375 35.984375 114.496094 36.511719 114.738281 36.890625 C 114.996094 37.25 115.441406 37.433594 116.082031 37.433594 C 116.277344 37.433594 116.488281 37.402344 116.714844 37.339844 C 116.941406 37.28125 117.148438 37.214844 117.335938 37.136719 L 117.695312 38.539062 C 117.394531 38.644531 117.0625 38.734375 116.703125 38.8125 C 116.355469 38.902344 116.007812 38.945312 115.660156 38.945312 Z M 115.652344 38.960938 "/>
</g>
</svg>
