<?xml version="1.0" encoding="UTF-8"?>
<svg xmlns="http://www.w3.org/2000/svg" xmlns:xlink="http://www.w3.org/1999/xlink" width="123px" height="62px" viewBox="0 0 124 62" version="1.1">
<g id="surface1">
<path style=" stroke:none;fill-rule:nonzero;fill:rgb(0%,0%,0%);fill-opacity:1;" d="M 41.332031 43.144531 L 41.332031 19.332031 L 42.625 19.332031 L 42.625 23.078125 C 42.777344 22.910156 42.917969 22.734375 43.046875 22.550781 C 44.125 20.3125 46.402344 18.898438 48.886719 18.925781 C 51.828125 18.839844 54.222656 19.929688 55.628906 22.550781 C 57.445312 25.851562 57.550781 29.832031 55.910156 33.226562 C 54.601562 36.160156 51.363281 37.621094 47.898438 37.085938 C 45.707031 36.898438 43.761719 35.613281 42.726562 33.671875 L 42.726562 43.144531 Z M 42.625 27.753906 L 42.914062 30.550781 C 43.425781 33.734375 45.304688 35.613281 48.261719 35.96875 C 51.121094 36.4375 53.917969 34.820312 54.933594 32.109375 C 56.085938 29.371094 56 26.269531 54.707031 23.59375 C 53.625 21.171875 51.066406 19.757812 48.4375 20.128906 C 45.976562 20.308594 43.898438 22.027344 43.257812 24.414062 C 42.984375 25.511719 42.773438 26.628906 42.625 27.753906 Z M 83.441406 30.992188 C 83.035156 34.460938 80.125 37.089844 76.632812 37.148438 C 71.214844 37.421875 68.675781 33.824219 68.269531 29.671875 C 67.988281 27.417969 68.355469 25.128906 69.324219 23.078125 C 70.710938 20.183594 73.808594 18.523438 76.984375 18.96875 C 80 19.226562 82.515625 21.382812 83.226562 24.324219 C 83.503906 25.632812 83.707031 26.953125 83.835938 28.285156 L 69.609375 28.285156 C 69.34375 32.046875 71.367188 35.074219 74.234375 35.800781 C 77.804688 36.679688 80.855469 35.132812 81.964844 31.738281 C 82.207031 30.867188 82.65625 30.746094 83.449219 30.992188 Z M 69.597656 27.078125 L 82.324219 27.078125 C 82.242188 23.070312 79.746094 20.15625 76.359375 20.121094 C 72.535156 20.058594 69.765625 22.855469 69.597656 27.078125 Z M 86.070312 31.078125 L 87.316406 31.078125 C 87.410156 32.953125 88.542969 34.617188 90.253906 35.386719 C 92.386719 36.347656 94.839844 36.285156 96.917969 35.214844 C 98.066406 34.695312 98.769531 33.519531 98.679688 32.265625 C 98.746094 31.054688 97.996094 29.945312 96.847656 29.550781 C 95.476562 29.039062 94.019531 28.757812 92.621094 28.308594 C 91.164062 27.894531 89.742188 27.375 88.363281 26.753906 C 86.109375 25.652344 85.972656 21.371094 88.523438 20.015625 C 91.175781 18.519531 94.40625 18.46875 97.105469 19.882812 C 98.75 20.792969 99.660156 22.628906 99.390625 24.492188 L 98.320312 24.492188 C 98.320312 24.441406 98.222656 24.394531 98.222656 24.34375 C 98.09375 20.933594 95.226562 19.867188 92.148438 20.164062 C 91.21875 20.269531 90.335938 20.550781 89.511719 20.964844 C 88.492188 21.429688 87.878906 22.488281 87.980469 23.601562 C 87.984375 24.71875 88.6875 25.710938 89.738281 26.082031 C 91.082031 26.578125 92.507812 26.890625 93.898438 27.277344 L 97.257812 28.15625 C 98.820312 28.671875 99.902344 30.09375 99.984375 31.738281 C 100.25 33.539062 99.332031 35.3125 97.707031 36.132812 C 94.769531 37.796875 89.933594 37.355469 87.777344 35.253906 C 86.675781 34.148438 86.058594 32.640625 86.074219 31.078125 Z M 115.808594 24.492188 L 114.640625 24.492188 C 114.640625 24.335938 114.578125 24.183594 114.558594 24.0625 C 114.519531 22.253906 113.222656 20.722656 111.445312 20.386719 C 109.820312 19.921875 108.085938 20.003906 106.511719 20.625 C 105.234375 20.988281 104.351562 22.152344 104.339844 23.484375 C 104.296875 24.792969 105.175781 25.953125 106.449219 26.261719 L 111.796875 27.632812 C 112.375 27.773438 112.945312 27.945312 113.503906 28.152344 C 115.207031 28.773438 116.363281 30.355469 116.417969 32.164062 C 116.46875 33.976562 115.402344 35.636719 113.730469 36.339844 C 111.21875 37.480469 108.347656 37.507812 105.816406 36.417969 C 103.707031 35.507812 102.386719 33.382812 102.507812 31.089844 L 103.652344 31.089844 C 104.082031 33.160156 105.503906 34.886719 107.457031 35.703125 C 109.410156 36.519531 111.636719 36.320312 113.414062 35.171875 C 114.5 34.605469 115.160156 33.457031 115.101562 32.234375 C 115.15625 31.019531 114.398438 29.917969 113.246094 29.535156 C 111.871094 29.023438 110.414062 28.75 109.015625 28.292969 C 107.550781 27.886719 106.121094 27.371094 104.734375 26.753906 C 102.535156 25.671875 102.359375 21.425781 104.867188 20.070312 C 107.554688 18.507812 110.867188 18.472656 113.589844 19.972656 C 115.152344 20.90625 116.019531 22.675781 115.796875 24.484375 Z M 39.207031 36.71875 C 38.253906 37.078125 37.183594 36.671875 36.710938 35.769531 L 32.164062 29.480469 L 31.503906 28.601562 L 26.226562 35.777344 C 25.785156 36.640625 24.765625 37.039062 23.851562 36.710938 L 30.652344 27.589844 L 24.328125 19.351562 C 25.265625 19.011719 26.3125 19.378906 26.832031 20.230469 L 31.542969 26.59375 L 36.285156 20.253906 C 36.734375 19.40625 37.746094 19.027344 38.640625 19.375 L 36.1875 22.628906 L 32.863281 26.957031 C 32.675781 27.125 32.570312 27.363281 32.570312 27.613281 C 32.570312 27.863281 32.675781 28.101562 32.863281 28.265625 L 39.195312 36.71875 Z M 68.070312 19.261719 L 68.070312 20.503906 C 66.269531 20.382812 64.503906 21.035156 63.210938 22.289062 C 61.917969 23.542969 61.214844 25.289062 61.28125 27.089844 C 61.28125 29.984375 61.28125 32.882812 61.28125 35.777344 L 61.28125 36.761719 L 60.023438 36.761719 L 60.023438 19.339844 L 61.261719 19.339844 L 61.261719 22.910156 C 62.785156 20.304688 65.132812 19.339844 68.078125 19.269531 Z M 7.578125 27.476562 L 8.132812 24.742188 C 9.652344 19.332031 15.851562 17.082031 20.117188 20.433594 C 22.617188 22.394531 23.238281 25.171875 23.117188 28.304688 L 9.046875 28.304688 C 8.820312 33.894531 12.855469 37.273438 18.015625 35.546875 C 19.714844 34.929688 20.996094 33.515625 21.417969 31.757812 C 21.691406 30.878906 22.140625 30.730469 22.964844 30.984375 C 22.6875 33.152344 21.429688 35.074219 19.554688 36.199219 C 16.414062 37.914062 12.53125 37.417969 9.925781 34.96875 C 8.667969 33.554688 7.910156 31.769531 7.761719 29.882812 C 7.761719 29.574219 7.65625 29.285156 7.585938 29.003906 C 7.578125 28.484375 7.574219 27.972656 7.574219 27.476562 Z M 9.0625 27.097656 L 21.789062 27.097656 C 21.707031 23.042969 19.148438 20.167969 15.738281 20.140625 C 11.9375 20.089844 9.222656 22.902344 9.054688 27.082031 Z M 9.0625 27.097656 "/>
</g>
</svg>
