<?xml version="1.0" encoding="UTF-8"?>
<svg xmlns="http://www.w3.org/2000/svg" xmlns:xlink="http://www.w3.org/1999/xlink" width="123px" height="62px" viewBox="0 0 124 62" version="1.1">
<defs>
<linearGradient id="linear0" gradientUnits="userSpaceOnUse" x1="262.624" y1="547.206" x2="375.377" y2="432.484" gradientTransform="matrix(0.255127,0,0,0.255127,-19.697895,-104.936591)">
<stop offset="0" style="stop-color:rgb(2.745098%,0.392157%,20.784314%);stop-opacity:1;"/>
<stop offset="1" style="stop-color:rgb(38.039216%,17.647059%,31.372549%);stop-opacity:1;"/>
</linearGradient>
</defs>
<g id="surface1">
<path style=" stroke:none;fill-rule:nonzero;fill:url(#linear0);" d="M 50.695312 3.574219 L 72.804688 3.574219 C 75.71875 3.574219 78.082031 5.9375 78.082031 8.851562 L 78.082031 31.09375 C 78.082031 34.007812 75.71875 36.371094 72.804688 36.371094 L 50.695312 36.371094 C 47.78125 36.371094 45.421875 34.007812 45.421875 31.09375 L 45.421875 8.851562 C 45.421875 5.9375 47.78125 3.574219 50.695312 3.574219 Z M 50.695312 3.574219 "/>
<path style=" stroke:none;fill-rule:nonzero;fill:rgb(100%,100%,100%);fill-opacity:1;" d="M 61.996094 17.695312 C 62.832031 17.695312 63.464844 17.515625 63.894531 17.148438 C 64.324219 16.785156 64.539062 16.25 64.539062 15.542969 C 64.539062 14.847656 64.324219 14.316406 63.894531 13.953125 C 63.460938 13.582031 62.832031 13.394531 61.996094 13.394531 L 59.066406 13.394531 L 59.066406 17.695312 L 61.996094 17.695312 M 62.175781 26.578125 C 63.238281 26.578125 64.035156 26.359375 64.566406 25.914062 C 65.109375 25.46875 65.378906 24.796875 65.378906 23.898438 C 65.378906 23.019531 65.113281 22.363281 64.582031 21.925781 C 64.050781 21.480469 63.25 21.257812 62.175781 21.257812 L 59.070312 21.257812 L 59.070312 26.578125 L 62.175781 26.578125 M 67.097656 19.273438 C 68.234375 19.601562 69.113281 20.203125 69.738281 21.082031 C 70.359375 21.960938 70.671875 23.042969 70.671875 24.320312 C 70.671875 26.28125 70.003906 27.742188 68.664062 28.703125 C 67.328125 29.664062 65.292969 30.144531 62.5625 30.144531 L 53.777344 30.144531 L 53.777344 9.828125 L 61.722656 9.828125 C 64.574219 9.828125 66.636719 10.253906 67.910156 11.109375 C 69.191406 11.960938 69.835938 13.328125 69.835938 15.203125 C 69.835938 16.191406 69.601562 17.035156 69.132812 17.734375 C 68.667969 18.425781 67.984375 18.933594 67.097656 19.273438 "/>
<path style=" stroke:none;fill-rule:nonzero;fill:rgb(13.72549%,5.882353%,23.921569%);fill-opacity:1;" d="M 15.941406 47.285156 L 15.941406 52.804688 L 19.210938 52.804688 C 20.304688 52.804688 21.117188 52.578125 21.644531 52.128906 C 22.175781 51.667969 22.4375 50.972656 22.4375 50.039062 C 22.4375 49.109375 22.171875 48.40625 21.644531 47.960938 C 21.117188 47.511719 20.308594 47.285156 19.210938 47.285156 L 15.941406 47.285156 M 15.941406 41.089844 L 15.941406 45.632812 L 18.957031 45.632812 C 19.953125 45.632812 20.695312 45.445312 21.179688 45.074219 C 21.667969 44.699219 21.914062 44.128906 21.914062 43.359375 C 21.914062 42.601562 21.667969 42.03125 21.179688 41.65625 C 20.6875 41.28125 19.953125 41.089844 18.957031 41.089844 L 15.941406 41.089844 M 13.902344 39.417969 L 19.109375 39.417969 C 20.664062 39.417969 21.863281 39.738281 22.703125 40.386719 C 23.542969 41.03125 23.964844 41.949219 23.964844 43.140625 C 23.964844 44.0625 23.75 44.796875 23.316406 45.339844 C 22.886719 45.886719 22.253906 46.226562 21.421875 46.359375 C 22.421875 46.574219 23.199219 47.027344 23.753906 47.703125 C 24.308594 48.382812 24.578125 49.234375 24.578125 50.257812 C 24.578125 51.601562 24.121094 52.640625 23.207031 53.375 C 22.292969 54.109375 20.988281 54.472656 19.300781 54.472656 L 13.890625 54.472656 L 13.890625 39.410156 "/>
<path style=" stroke:none;fill-rule:nonzero;fill:rgb(13.72549%,5.882353%,23.921569%);fill-opacity:1;" d="M 32.265625 44.480469 C 31.332031 44.449219 30.445312 44.886719 29.90625 45.648438 C 29.324219 46.425781 29.035156 47.484375 29.035156 48.839844 C 29.035156 50.191406 29.324219 51.257812 29.894531 52.039062 C 30.472656 52.8125 31.261719 53.199219 32.265625 53.199219 C 33.195312 53.226562 34.078125 52.789062 34.617188 52.027344 C 35.195312 51.246094 35.484375 50.183594 35.484375 48.839844 C 35.484375 47.5 35.195312 46.441406 34.617188 45.660156 C 34.039062 44.871094 33.253906 44.480469 32.265625 44.480469 M 32.265625 42.90625 C 33.878906 42.90625 35.160156 43.429688 36.070312 44.480469 C 36.980469 45.527344 37.453125 46.980469 37.453125 48.839844 C 37.453125 50.699219 36.992188 52.144531 36.070312 53.199219 C 35.148438 54.25 33.878906 54.773438 32.265625 54.773438 C 30.644531 54.773438 29.371094 54.25 28.441406 53.199219 C 27.527344 52.144531 27.070312 50.691406 27.070312 48.839844 C 27.070312 46.984375 27.527344 45.53125 28.441406 44.480469 C 29.363281 43.429688 30.636719 42.90625 32.265625 42.90625 "/>
<path style=" stroke:none;fill-rule:nonzero;fill:rgb(13.72549%,5.882353%,23.921569%);fill-opacity:1;" d="M 44.796875 44.480469 C 43.863281 44.449219 42.976562 44.886719 42.4375 45.648438 C 41.855469 46.425781 41.566406 47.484375 41.566406 48.839844 C 41.566406 50.191406 41.855469 51.257812 42.425781 52.039062 C 43.003906 52.8125 43.792969 53.199219 44.796875 53.199219 C 45.726562 53.226562 46.609375 52.789062 47.148438 52.027344 C 47.726562 51.246094 48.015625 50.183594 48.015625 48.839844 C 48.015625 47.5 47.726562 46.441406 47.148438 45.660156 C 46.570312 44.871094 45.785156 44.480469 44.796875 44.480469 M 44.796875 42.90625 C 46.410156 42.90625 47.691406 43.429688 48.601562 44.480469 C 49.511719 45.527344 49.984375 46.980469 49.984375 48.839844 C 49.984375 50.699219 49.523438 52.144531 48.601562 53.199219 C 47.679688 54.25 46.410156 54.773438 44.796875 54.773438 C 43.175781 54.773438 41.902344 54.25 40.972656 53.199219 C 40.058594 52.144531 39.601562 50.691406 39.601562 48.839844 C 39.601562 46.984375 40.058594 45.53125 40.972656 44.480469 C 41.894531 43.429688 43.167969 42.90625 44.796875 42.90625 "/>
<path style=" stroke:none;fill-rule:nonzero;fill:rgb(13.72549%,5.882353%,23.921569%);fill-opacity:1;" d="M 54.785156 39.96875 L 54.785156 43.175781 L 58.609375 43.175781 L 58.609375 44.617188 L 54.785156 44.617188 L 54.785156 50.753906 C 54.785156 51.675781 54.910156 52.269531 55.15625 52.53125 C 55.410156 52.792969 55.925781 52.925781 56.699219 52.925781 L 58.609375 52.925781 L 58.609375 54.476562 L 56.699219 54.476562 C 55.265625 54.476562 54.277344 54.210938 53.734375 53.683594 C 53.1875 53.144531 52.90625 52.167969 52.90625 50.757812 L 52.90625 44.617188 L 51.542969 44.617188 L 51.542969 43.175781 L 52.90625 43.175781 L 52.90625 39.96875 L 54.773438 39.96875 M 68.152344 43.511719 L 68.152344 45.265625 C 67.632812 45 67.082031 44.796875 66.515625 44.660156 C 65.953125 44.527344 65.367188 44.460938 64.761719 44.460938 C 63.839844 44.460938 63.144531 44.601562 62.679688 44.875 C 62.222656 45.15625 61.996094 45.582031 61.996094 46.144531 C 61.996094 46.574219 62.160156 46.914062 62.492188 47.164062 C 62.820312 47.40625 63.484375 47.640625 64.480469 47.859375 L 65.113281 48 C 66.433594 48.285156 67.367188 48.683594 67.921875 49.203125 C 68.476562 49.714844 68.746094 50.429688 68.746094 51.351562 C 68.777344 52.335938 68.3125 53.273438 67.507812 53.84375 C 66.679688 54.457031 65.539062 54.773438 64.097656 54.773438 C 63.492188 54.773438 62.859375 54.710938 62.199219 54.59375 C 61.546875 54.488281 60.855469 54.300781 60.128906 54.066406 L 60.128906 52.148438 C 60.816406 52.507812 61.492188 52.777344 62.160156 52.957031 C 62.804688 53.128906 63.46875 53.214844 64.136719 53.21875 C 65.011719 53.21875 65.683594 53.070312 66.15625 52.773438 C 66.625 52.472656 66.863281 52.046875 66.863281 51.503906 C 66.863281 51 66.691406 50.613281 66.347656 50.34375 C 66.011719 50.074219 65.265625 49.828125 64.117188 49.566406 L 63.472656 49.414062 C 62.320312 49.171875 61.492188 48.804688 60.980469 48.304688 C 60.46875 47.800781 60.210938 47.109375 60.210938 46.238281 C 60.210938 45.171875 60.589844 44.351562 61.34375 43.773438 C 62.097656 43.195312 63.164062 42.90625 64.550781 42.90625 C 65.199219 42.902344 65.847656 42.953125 66.488281 43.058594 C 67.0625 43.148438 67.621094 43.300781 68.164062 43.511719 M 73.46875 39.964844 L 73.46875 43.175781 L 77.292969 43.175781 L 77.292969 44.617188 L 73.46875 44.617188 L 73.46875 50.753906 C 73.46875 51.675781 73.59375 52.265625 73.839844 52.53125 C 74.09375 52.792969 74.609375 52.921875 75.382812 52.921875 L 77.292969 52.921875 L 77.292969 54.476562 L 75.386719 54.476562 C 73.953125 54.476562 72.964844 54.210938 72.421875 53.683594 C 71.875 53.144531 71.59375 52.167969 71.59375 50.753906 L 71.59375 44.617188 L 70.230469 44.617188 L 70.230469 43.175781 L 71.59375 43.175781 L 71.59375 39.96875 L 73.46875 39.96875 M 86.179688 44.914062 C 85.964844 44.789062 85.734375 44.703125 85.492188 44.652344 C 85.230469 44.585938 84.960938 44.558594 84.6875 44.558594 C 83.636719 44.558594 82.832031 44.902344 82.265625 45.589844 C 81.707031 46.269531 81.4375 47.25 81.4375 48.527344 L 81.4375 54.480469 L 79.570312 54.480469 L 79.570312 43.175781 L 81.4375 43.175781 L 81.4375 44.933594 C 81.828125 44.246094 82.339844 43.738281 82.964844 43.410156 C 83.589844 43.070312 84.347656 42.902344 85.242188 42.902344 C 85.386719 42.90625 85.527344 42.914062 85.667969 42.933594 L 86.183594 43.003906 L 86.191406 44.910156 M 93.191406 48.796875 C 91.691406 48.796875 90.652344 48.96875 90.074219 49.3125 C 89.496094 49.65625 89.207031 50.238281 89.207031 51.070312 C 89.207031 51.726562 89.421875 52.253906 89.851562 52.640625 C 90.289062 53.023438 90.878906 53.21875 91.628906 53.21875 C 92.65625 53.21875 93.484375 52.855469 94.101562 52.128906 C 94.726562 51.402344 95.039062 50.421875 95.039062 49.210938 L 95.039062 48.796875 L 93.191406 48.796875 M 96.898438 48.03125 L 96.898438 54.480469 L 95.039062 54.480469 L 95.039062 52.765625 C 94.625 53.449219 94.089844 53.957031 93.457031 54.289062 C 92.824219 54.609375 92.050781 54.773438 91.136719 54.773438 C 89.976562 54.773438 89.054688 54.453125 88.371094 53.804688 C 87.691406 53.152344 87.351562 52.28125 87.351562 51.191406 C 87.351562 49.921875 87.765625 48.960938 88.621094 48.316406 C 89.480469 47.667969 90.746094 47.347656 92.445312 47.347656 L 95.050781 47.347656 L 95.050781 47.164062 C 95.050781 46.3125 94.765625 45.652344 94.203125 45.1875 C 93.644531 44.714844 92.855469 44.480469 91.839844 44.480469 C 91.195312 44.480469 90.566406 44.558594 89.953125 44.714844 C 89.339844 44.871094 88.746094 45.105469 88.1875 45.410156 L 88.1875 43.695312 C 88.867188 43.433594 89.527344 43.238281 90.164062 43.109375 C 90.78125 42.976562 91.40625 42.910156 92.03125 42.90625 C 93.667969 42.90625 94.890625 43.320312 95.695312 44.179688 C 96.503906 45.035156 96.90625 46.3125 96.90625 48.035156 M 102.433594 52.78125 L 102.433594 58.777344 L 100.566406 58.777344 L 100.566406 43.175781 L 102.433594 43.175781 L 102.433594 44.890625 C 102.824219 44.21875 103.316406 43.722656 103.910156 43.398438 C 104.507812 43.066406 105.222656 42.902344 106.046875 42.902344 C 107.359375 42.871094 108.605469 43.484375 109.386719 44.539062 C 110.25 45.628906 110.679688 47.058594 110.679688 48.835938 C 110.679688 50.613281 110.25 52.042969 109.386719 53.136719 C 108.605469 54.191406 107.359375 54.800781 106.046875 54.769531 C 105.222656 54.769531 104.496094 54.609375 103.910156 54.285156 C 103.316406 53.953125 102.824219 53.453125 102.433594 52.78125 M 108.753906 48.835938 C 108.753906 47.46875 108.46875 46.398438 107.90625 45.625 C 107.347656 44.847656 106.574219 44.457031 105.59375 44.457031 C 104.671875 44.425781 103.796875 44.867188 103.273438 45.625 C 102.714844 46.402344 102.445312 47.46875 102.445312 48.835938 C 102.445312 50.199219 102.726562 51.273438 103.273438 52.054688 C 103.839844 52.828125 104.613281 53.214844 105.59375 53.214844 C 106.574219 53.214844 107.347656 52.828125 107.90625 52.054688 C 108.46875 51.273438 108.753906 50.199219 108.753906 48.835938 "/>
</g>
</svg>
