<?xml version="1.0" encoding="UTF-8"?>
<svg xmlns="http://www.w3.org/2000/svg" xmlns:xlink="http://www.w3.org/1999/xlink" width="123px" height="62px" viewBox="0 0 124 62" version="1.1">
<g id="surface1">
<path style=" stroke:none;fill-rule:nonzero;fill:rgb(40.392157%,38.431373%,65.098039%);fill-opacity:1;" d="M 29.257812 45.371094 L 9.074219 45.371094 C 7.347656 45.371094 5.949219 43.96875 5.949219 42.242188 L 5.949219 15.726562 C 5.949219 14 7.347656 12.601562 9.074219 12.601562 L 29.257812 12.601562 C 30.980469 12.601562 32.382812 14 32.382812 15.726562 L 32.382812 42.238281 C 32.382812 43.960938 30.980469 45.363281 29.257812 45.363281 Z M 29.257812 45.371094 "/>
<path style=" stroke:none;fill-rule:nonzero;fill:rgb(100%,100%,100%);fill-opacity:1;" d="M 22.515625 40.863281 L 22.515625 27.847656 C 22.515625 27.847656 23.351562 24.734375 12.089844 29.121094 C 12.070312 29.183594 12.070312 17.089844 12.070312 17.089844 L 15.75 17.0625 L 15.75 24.8125 C 15.75 24.8125 26.066406 20.746094 26.066406 27.894531 L 26.066406 40.863281 Z M 24.613281 21.746094 L 20.707031 21.746094 C 22.113281 20.027344 23.386719 17.082031 23.386719 17.082031 L 27.421875 17.082031 C 27.421875 17.082031 26.730469 19 24.613281 21.746094 Z M 12.128906 40.835938 L 12.128906 33.429688 L 15.835938 37.136719 L 12.128906 40.84375 Z M 12.128906 40.835938 "/>
<path style=" stroke:none;fill-rule:nonzero;fill:rgb(40.392157%,38.431373%,65.098039%);fill-opacity:1;" d="M 46.953125 39.914062 L 46.953125 29.257812 C 46.953125 28.507812 46.402344 28.175781 45.75 28.175781 C 44.234375 28.207031 42.734375 28.539062 41.347656 29.152344 L 41.347656 39.914062 L 38.34375 39.914062 L 38.34375 20.125 L 41.347656 20.125 L 41.347656 26.648438 C 42.765625 26.128906 44.472656 25.679688 46.175781 25.679688 C 48.902344 25.679688 49.921875 27.359375 49.921875 29.65625 L 49.921875 39.925781 Z M 55.542969 33.453125 C 55.636719 37.03125 56.34375 37.734375 58.542969 37.734375 C 60.269531 37.734375 62.226562 37.15625 63.722656 36.585938 L 64.222656 38.847656 C 62.621094 39.570312 60.667969 40.269531 58.410156 40.269531 C 53.402344 40.269531 52.628906 37.515625 52.628906 33.136719 C 52.628906 30.734375 52.804688 28.550781 53.378906 26.550781 C 54.875 25.96875 56.886719 25.671875 59.410156 25.671875 C 63.519531 25.671875 64.769531 27.953125 64.769531 31.9375 L 64.769531 33.460938 L 55.542969 33.460938 Z M 59.351562 28.171875 C 58.449219 28.171875 57.027344 28.195312 55.851562 28.429688 C 55.722656 29.03125 55.574219 29.851562 55.527344 31.382812 L 61.792969 31.382812 C 61.792969 29.300781 61.417969 28.175781 59.363281 28.175781 Z M 70.332031 29.140625 L 70.332031 39.914062 L 67.328125 39.914062 L 67.328125 27.808594 C 69.488281 26.6875 71.855469 26.03125 74.285156 25.886719 L 74.285156 28.382812 C 72.992188 28.480469 71.507812 28.644531 70.332031 29.160156 Z M 82.214844 40.25 C 77.734375 40.25 75.703125 38.050781 75.703125 33.015625 C 75.703125 27.6875 78.386719 25.652344 82.214844 25.652344 C 86.695312 25.652344 88.71875 27.847656 88.71875 32.886719 C 88.71875 38.214844 86.039062 40.25 82.214844 40.25 Z M 82.214844 28.171875 C 79.910156 28.171875 78.636719 29.496094 78.636719 33.027344 C 78.636719 36.882812 79.714844 37.742188 82.214844 37.742188 C 84.515625 37.742188 85.792969 36.4375 85.792969 32.910156 C 85.792969 29.054688 84.714844 28.183594 82.214844 28.183594 Z M 103.203125 39.90625 L 99.679688 39.90625 C 98.851562 37.710938 97.703125 35.386719 95.933594 33.5 L 94.355469 33.5 L 94.355469 39.90625 L 91.351562 39.90625 L 91.351562 20.125 L 94.355469 20.125 L 94.355469 31.492188 L 95.757812 31.492188 C 97.25 29.898438 98.445312 28.050781 99.285156 26.035156 L 102.660156 26.035156 C 101.511719 28.359375 100.03125 30.414062 98.378906 32.089844 C 100.269531 34.519531 101.890625 37.148438 103.210938 39.925781 Z M 108.835938 40.253906 C 106.109375 40.253906 105.089844 38.574219 105.089844 36.277344 L 105.089844 26.027344 L 108.0625 26.027344 L 108.0625 36.664062 C 108.0625 37.414062 108.609375 37.742188 109.261719 37.742188 C 110.828125 37.714844 112.375 37.382812 113.816406 36.765625 L 113.816406 26.027344 L 116.816406 26.027344 L 116.816406 38.089844 C 113.265625 40.042969 110.535156 40.269531 108.835938 40.269531 Z M 108.835938 40.253906 "/>
</g>
</svg>
