<?xml version="1.0" encoding="UTF-8"?>
<svg xmlns="http://www.w3.org/2000/svg" xmlns:xlink="http://www.w3.org/1999/xlink" width="123px" height="75px" viewBox="0 0 122 75" version="1.1">
<defs>
<clipPath id="clip1">
  <path d="M 31 17 L 59 17 L 59 47 L 31 47 Z M 31 17 "/>
</clipPath>
<clipPath id="clip2">
  <path d="M 44.3125 17.335938 L 32.695312 24.074219 C 32.261719 24.324219 31.996094 24.792969 31.996094 25.292969 L 31.996094 38.777344 C 31.996094 39.277344 32.261719 39.742188 32.695312 39.996094 L 44.3125 46.738281 C 44.746094 46.988281 45.28125 46.988281 45.71875 46.738281 L 57.332031 39.996094 C 57.765625 39.742188 58.03125 39.277344 58.03125 38.777344 L 58.03125 25.292969 C 58.03125 24.792969 57.765625 24.324219 57.328125 24.074219 L 45.714844 17.335938 C 45.496094 17.210938 45.253906 17.148438 45.011719 17.148438 C 44.769531 17.148438 44.527344 17.210938 44.308594 17.335938 "/>
</clipPath>
<linearGradient id="linear0" gradientUnits="userSpaceOnUse" x1="-0.348" y1="0" x2="1.251" y2="0" gradientTransform="matrix(-10.494714,21.510245,-21.409134,-10.544278,49.742213,22.33055)">
<stop offset="0.3" style="stop-color:rgb(24.313725%,52.54902%,23.921569%);stop-opacity:1;"/>
<stop offset="0.5" style="stop-color:rgb(33.333333%,57.647059%,30.980392%);stop-opacity:1;"/>
<stop offset="0.8" style="stop-color:rgb(35.294118%,67.843137%,27.058824%);stop-opacity:1;"/>
</linearGradient>
<clipPath id="clip3">
  <path d="M 32 17 L 58 17 L 58 47 L 32 47 Z M 32 17 "/>
</clipPath>
<clipPath id="clip4">
  <path d="M 32.28125 39.632812 C 32.394531 39.777344 32.53125 39.902344 32.695312 39.996094 L 42.660156 45.777344 L 44.320312 46.738281 C 44.570312 46.882812 44.851562 46.941406 45.128906 46.921875 C 45.222656 46.914062 45.316406 46.894531 45.40625 46.871094 L 57.65625 24.332031 C 57.5625 24.230469 57.453125 24.144531 57.328125 24.074219 L 49.722656 19.660156 L 45.703125 17.335938 C 45.589844 17.269531 45.464844 17.222656 45.339844 17.1875 Z M 32.28125 39.632812 "/>
</clipPath>
<linearGradient id="linear1" gradientUnits="userSpaceOnUse" x1="-0.456" y1="0" x2="0.582" y2="0" gradientTransform="matrix(29.446942,-21.86055,21.757793,29.586013,43.253476,33.622866)">
<stop offset="0.57" style="stop-color:rgb(24.313725%,52.54902%,23.921569%);stop-opacity:1;"/>
<stop offset="0.72" style="stop-color:rgb(38.039216%,59.607843%,34.117647%);stop-opacity:1;"/>
<stop offset="1" style="stop-color:rgb(46.27451%,67.45098%,39.215686%);stop-opacity:1;"/>
</linearGradient>
<clipPath id="clip5">
  <path d="M 32 17 L 59 17 L 59 47 L 32 47 Z M 32 17 "/>
</clipPath>
<clipPath id="clip6">
  <path d="M 44.875 17.15625 C 44.679688 17.175781 44.488281 17.238281 44.3125 17.335938 L 32.730469 24.054688 L 45.21875 46.910156 C 45.394531 46.886719 45.566406 46.828125 45.71875 46.738281 L 57.335938 39.996094 C 57.691406 39.789062 57.9375 39.433594 58.011719 39.03125 L 45.28125 17.179688 C 45.1875 17.160156 45.09375 17.152344 44.996094 17.152344 C 44.957031 17.152344 44.917969 17.152344 44.882812 17.15625 "/>
</clipPath>
<linearGradient id="linear2" gradientUnits="userSpaceOnUse" x1="0.043" y1="0" x2="0.984" y2="0" gradientTransform="matrix(26.858423,0,0,26.985269,31.58389,32.032074)">
<stop offset="0.16" style="stop-color:rgb(41.960784%,74.901961%,27.843137%);stop-opacity:1;"/>
<stop offset="0.38" style="stop-color:rgb(47.45098%,70.588235%,38.039216%);stop-opacity:1;"/>
<stop offset="0.47" style="stop-color:rgb(45.882353%,67.45098%,39.215686%);stop-opacity:1;"/>
<stop offset="0.7" style="stop-color:rgb(39.607843%,61.960784%,35.294118%);stop-opacity:1;"/>
<stop offset="0.9" style="stop-color:rgb(24.313725%,52.54902%,23.921569%);stop-opacity:1;"/>
</linearGradient>
</defs>
<g id="surface1">
<path style=" stroke:none;fill-rule:nonzero;fill:rgb(40.784314%,62.352941%,38.823529%);fill-opacity:1;" d="M 60.28125 75.050781 C 59.878906 75.050781 59.480469 74.945312 59.128906 74.738281 L 55.449219 72.550781 C 54.902344 72.242188 55.167969 72.132812 55.351562 72.070312 C 56.082031 71.8125 56.230469 71.753906 57.011719 71.308594 C 57.09375 71.261719 57.203125 71.28125 57.285156 71.328125 L 60.109375 73.011719 C 60.214844 73.070312 60.359375 73.070312 60.453125 73.011719 L 71.46875 66.625 C 71.570312 66.566406 71.636719 66.449219 71.636719 66.328125 L 71.636719 53.554688 C 71.636719 53.429688 71.570312 53.316406 71.464844 53.25 L 60.453125 46.871094 C 60.351562 46.808594 60.21875 46.808594 60.117188 46.871094 L 49.109375 53.25 C 49 53.3125 48.933594 53.433594 48.933594 53.554688 L 48.933594 66.324219 C 48.933594 66.445312 49 66.5625 49.105469 66.621094 L 52.121094 68.371094 C 53.757812 69.195312 54.757812 68.222656 54.757812 67.25 L 54.757812 54.644531 C 54.757812 54.464844 54.898438 54.328125 55.078125 54.328125 L 56.472656 54.328125 C 56.648438 54.328125 56.789062 54.464844 56.789062 54.644531 L 56.789062 67.253906 C 56.789062 69.449219 55.601562 70.707031 53.527344 70.707031 C 52.890625 70.707031 52.390625 70.707031 50.988281 70.015625 L 48.101562 68.34375 C 47.386719 67.925781 46.945312 67.152344 46.945312 66.324219 L 46.945312 53.554688 C 46.945312 52.722656 47.386719 51.945312 48.101562 51.535156 L 59.125 45.144531 C 59.824219 44.75 60.75 44.75 61.441406 45.144531 L 72.453125 51.539062 C 73.164062 51.953125 73.609375 52.726562 73.609375 53.554688 L 73.609375 66.328125 C 73.609375 67.15625 73.164062 67.925781 72.453125 68.34375 L 61.441406 74.734375 C 61.089844 74.9375 60.6875 75.042969 60.28125 75.042969 "/>
<path style=" stroke:none;fill-rule:nonzero;fill:rgb(40.784314%,62.352941%,38.823529%);fill-opacity:1;" d="M 63.683594 66.25 C 58.867188 66.25 57.855469 64.027344 57.855469 62.164062 C 57.855469 61.984375 57.996094 61.84375 58.171875 61.84375 L 59.597656 61.84375 C 59.753906 61.84375 59.886719 61.960938 59.910156 62.117188 C 60.125 63.570312 60.765625 64.308594 63.679688 64.308594 C 66 64.308594 66.988281 63.78125 66.988281 62.542969 C 66.988281 61.832031 66.707031 61.300781 63.101562 60.949219 C 60.085938 60.648438 58.21875 59.980469 58.21875 57.558594 C 58.21875 55.324219 60.09375 53.996094 63.234375 53.996094 C 66.761719 53.996094 68.511719 55.222656 68.730469 57.867188 C 68.738281 57.957031 68.707031 58.046875 68.644531 58.113281 C 68.585938 58.175781 68.5 58.214844 68.410156 58.214844 L 66.980469 58.214844 C 66.832031 58.214844 66.703125 58.109375 66.671875 57.96875 C 66.328125 56.433594 65.492188 55.945312 63.230469 55.945312 C 60.695312 55.945312 60.402344 56.832031 60.402344 57.496094 C 60.402344 58.300781 60.75 58.539062 64.167969 58.992188 C 67.554688 59.445312 69.160156 60.082031 69.160156 62.472656 C 69.160156 64.882812 67.160156 66.261719 63.667969 66.261719 M 77.085938 52.71875 L 77.453125 52.71875 C 77.757812 52.71875 77.816406 52.507812 77.816406 52.382812 C 77.816406 52.054688 77.589844 52.054688 77.46875 52.054688 L 77.085938 52.054688 Z M 76.636719 51.671875 L 77.453125 51.671875 C 77.734375 51.671875 78.285156 51.671875 78.285156 52.304688 C 78.285156 52.746094 78.003906 52.835938 77.835938 52.890625 C 78.164062 52.914062 78.1875 53.128906 78.230469 53.433594 C 78.253906 53.625 78.289062 53.957031 78.355469 54.066406 L 77.851562 54.066406 C 77.835938 53.957031 77.761719 53.347656 77.761719 53.3125 C 77.726562 53.175781 77.679688 53.109375 77.511719 53.109375 L 77.09375 53.109375 L 77.09375 54.070312 L 76.636719 54.070312 Z M 75.652344 52.863281 C 75.652344 53.855469 76.449219 54.660156 77.425781 54.660156 C 78.414062 54.660156 79.210938 53.839844 79.210938 52.863281 C 79.210938 51.871094 78.402344 51.082031 77.421875 51.082031 C 76.457031 51.082031 75.648438 51.859375 75.648438 52.863281 M 79.550781 52.871094 C 79.550781 54.042969 78.59375 55.003906 77.429688 55.003906 C 76.269531 55.003906 75.304688 54.054688 75.304688 52.871094 C 75.304688 51.664062 76.292969 50.738281 77.429688 50.738281 C 78.574219 50.738281 79.550781 51.664062 79.550781 52.871094 "/>
<path style=" stroke:none;fill-rule:evenodd;fill:rgb(20%,20%,20%);fill-opacity:1;" d="M 26.175781 25.082031 C 26.175781 24.574219 25.90625 24.105469 25.46875 23.851562 L 13.792969 17.101562 C 13.59375 16.984375 13.375 16.921875 13.148438 16.914062 L 13.027344 16.914062 C 12.804688 16.921875 12.585938 16.984375 12.382812 17.101562 L 0.707031 23.851562 C 0.269531 24.105469 0 24.574219 0 25.085938 L 0.0273438 43.265625 C 0.0273438 43.519531 0.15625 43.753906 0.375 43.878906 C 0.589844 44.011719 0.859375 44.011719 1.078125 43.878906 L 8.019531 39.886719 C 8.457031 39.621094 8.722656 39.160156 8.722656 38.65625 L 8.722656 30.160156 C 8.722656 29.652344 8.992188 29.183594 9.429688 28.933594 L 12.382812 27.222656 C 12.605469 27.097656 12.84375 27.03125 13.089844 27.03125 C 13.332031 27.03125 13.578125 27.09375 13.792969 27.222656 L 16.746094 28.933594 C 17.183594 29.183594 17.453125 29.652344 17.453125 30.160156 L 17.453125 38.652344 C 17.453125 39.15625 17.722656 39.625 18.160156 39.882812 L 25.097656 43.875 C 25.3125 44.003906 25.585938 44.003906 25.800781 43.875 C 26.015625 43.75 26.152344 43.515625 26.152344 43.261719 Z M 81.277344 34.550781 C 81.277344 34.675781 81.210938 34.792969 81.101562 34.855469 L 77.09375 37.179688 C 76.984375 37.242188 76.847656 37.242188 76.738281 37.179688 L 72.726562 34.855469 C 72.617188 34.792969 72.550781 34.675781 72.550781 34.550781 L 72.550781 29.898438 C 72.550781 29.769531 72.617188 29.652344 72.726562 29.589844 L 76.734375 27.261719 C 76.84375 27.199219 76.980469 27.199219 77.089844 27.261719 L 81.101562 29.589844 C 81.210938 29.652344 81.277344 29.769531 81.277344 29.898438 Z M 82.363281 0.0898438 C 82.144531 -0.03125 81.878906 -0.03125 81.660156 0.0976562 C 81.445312 0.226562 81.3125 0.457031 81.3125 0.710938 L 81.3125 18.714844 C 81.3125 18.890625 81.21875 19.054688 81.066406 19.144531 C 80.914062 19.234375 80.726562 19.234375 80.574219 19.144531 L 77.648438 17.453125 C 77.210938 17.199219 76.675781 17.199219 76.238281 17.453125 L 64.558594 24.226562 C 64.121094 24.476562 63.851562 24.945312 63.851562 25.449219 L 63.851562 39 C 63.851562 39.507812 64.121094 39.972656 64.558594 40.226562 L 76.238281 47.007812 C 76.675781 47.257812 77.210938 47.257812 77.648438 47.007812 L 89.332031 40.226562 C 89.765625 39.96875 90.035156 39.503906 90.035156 38.996094 L 90.035156 5.226562 C 90.035156 4.710938 89.757812 4.238281 89.3125 3.988281 Z M 121.261719 29.773438 C 121.695312 29.523438 121.964844 29.054688 121.964844 28.550781 L 121.964844 25.265625 C 121.964844 24.761719 121.695312 24.292969 121.261719 24.039062 L 109.65625 17.269531 C 109.214844 17.015625 108.679688 17.015625 108.242188 17.269531 L 96.5625 24.042969 C 96.121094 24.296875 95.855469 24.761719 95.855469 25.269531 L 95.855469 38.816406 C 95.855469 39.324219 96.128906 39.796875 96.566406 40.046875 L 108.171875 46.695312 C 108.597656 46.941406 109.121094 46.941406 109.554688 46.703125 L 116.574219 42.78125 C 116.796875 42.65625 116.9375 42.421875 116.9375 42.167969 C 116.9375 41.914062 116.800781 41.675781 116.582031 41.550781 L 104.828125 34.773438 C 104.609375 34.648438 104.472656 34.414062 104.472656 34.160156 L 104.472656 29.914062 C 104.472656 29.660156 104.605469 29.425781 104.828125 29.300781 L 108.484375 27.179688 C 108.699219 27.050781 108.96875 27.050781 109.1875 27.179688 L 112.84375 29.300781 C 113.0625 29.421875 113.199219 29.660156 113.199219 29.910156 L 113.199219 33.25 C 113.199219 33.503906 113.332031 33.738281 113.550781 33.867188 C 113.769531 33.992188 114.039062 33.992188 114.257812 33.863281 Z M 121.261719 29.773438 "/>
<path style=" stroke:none;fill-rule:evenodd;fill:rgb(40.784314%,62.352941%,38.823529%);fill-opacity:1;" d="M 108.777344 29.140625 C 108.859375 29.09375 108.964844 29.09375 109.046875 29.140625 L 111.289062 30.441406 C 111.371094 30.488281 111.421875 30.578125 111.421875 30.675781 L 111.421875 33.277344 C 111.421875 33.375 111.371094 33.464844 111.289062 33.511719 L 109.046875 34.8125 C 108.964844 34.859375 108.859375 34.859375 108.777344 34.8125 L 106.535156 33.511719 C 106.449219 33.464844 106.398438 33.375 106.398438 33.277344 L 106.398438 30.675781 C 106.398438 30.578125 106.449219 30.488281 106.535156 30.441406 Z M 108.777344 29.140625 "/>
<g clip-path="url(#clip1)" clip-rule="nonzero">
<g clip-path="url(#clip2)" clip-rule="nonzero">
<path style=" stroke:none;fill-rule:nonzero;fill:url(#linear0);" d="M 69.769531 22.929688 L 37.039062 6.8125 L 20.257812 41.207031 L 52.988281 57.328125 Z M 69.769531 22.929688 "/>
</g>
</g>
<g clip-path="url(#clip3)" clip-rule="nonzero">
<g clip-path="url(#clip4)" clip-rule="nonzero">
<path style=" stroke:none;fill-rule:nonzero;fill:url(#linear1);" d="M 18.132812 27.699219 L 41.242188 59.125 L 71.808594 36.4375 L 48.695312 5.007812 Z M 18.132812 27.699219 "/>
</g>
</g>
<g clip-path="url(#clip5)" clip-rule="nonzero">
<g clip-path="url(#clip6)" clip-rule="nonzero">
<path style=" stroke:none;fill-rule:nonzero;fill:url(#linear2);" d="M 32.730469 17.152344 L 32.730469 46.910156 L 58.007812 46.910156 L 58.007812 17.152344 Z M 32.730469 17.152344 "/>
</g>
</g>
</g>
</svg>
